{"title":"Bad Asses 2014 720p BluRay x264 DTS ROVERS DUAL Thyrso10","uid":10218934,"size":4947267737,"categoryP":"video","categoryS":"hd___movies","magnet":"?xt=urn:btih:a51d3ab9d0d303f4f08beda919a95b606e15533a&amp;dn=Bad+Asses+2014+720p+BluRay+x264+DTS+ROVERS+DUAL+Thyrso10&amp;tr=udp%3A%2F%2Ftracker.openbittorrent.com%3A80&amp;tr=udp%3A%2F%2Fopen.demonii.com%3A1337&amp;tr=udp%3A%2F%2Ftracker.coppersurfer.tk%3A6969&amp;tr=udp%3A%2F%2Fexodus.desync.com%3A6969","seeders":0,"leechers":0,"uploader":"Alemao99","files":6,"time":1401001054,"description":"Frank (Danny Trejo), Vietnam vet now runs a community center in East LA where he trains young boxers to survive inside and outside the ring. But when his student turns up dead, he joins his old friend Bernie (Danny Glover), to prove that justice never gets old. \n\nTitle in Brazil: Bad Asses \nOriginal title: Bad Asses \nYear of Production: 2013 \nRelease Date in Brazil: 2014 \nGenre: Action \nDuration: 105min \nDirector: Craig Moss \nIMDB: http://www.imdb.com/title/tt2996648/ \n\nSize: 4.61 GB \nResolution: 1280 x 720 \nQuality: Bluray \nVideo Codec: H.264 / AVC \nAudio Codec: AC3/DTS \nFile extension MKV \nLanguage: Portuguese / English \nCaption: Portuguese\n\nFormat                                   : Matroska\nFormat version                           : Version 2\nFile size                                : 4.61 GiB\nDuration                                 : 1h 30mn\nOverall bit rate                         : 7 275 Kbps\nEncoded date                             : UTC 2014-05-07 15:01:05\nWriting application                      : mkvmerge v5.6.0 ('Kenya Kane') built on May 27 2012 16:44:04\nWriting library                          : libebml v1.2.3 + libmatroska v1.3.0\n\nVideo\nID                                       : 1\nFormat                                   : AVC\nFormat/Info                              : Advanced Video Codec\nFormat profile                           : &lt;a class=&quot;__cf_email__&quot; href=&quot;/cdn-cgi/l/email-protection&quot; data-cfemail=&quot;8bc3e2ece3cbc7bfa5ba&quot;&gt;[email&amp;#160;protected]&lt;/a&gt;&lt;script data-cfhash='f9e31' type=&quot;text/javascript&quot;&gt;\n/* &lt;![CDATA[ */!function(){try{var t=&quot;currentScript&quot;in document?document.currentScript:function(){for(var t=document.getElementsByTagName(&quot;script&quot;),e=t.length;e--;)if(t[e].getAttribute(&quot;data-cfhash&quot;))return t[e]}();if(t&amp;&amp;t.previousSibling){var e,r,n,i,c=t.previousSibling,a=c.getAttribute(&quot;data-cfemail&quot;);if(a){for(e=&quot;&quot;,r=parseInt(a.substr(0,2),16),n=2;a.length-n;n+=2)i=parseInt(a.substr(n,2),16)^r,e+=String.fromCharCode(i);e=document.createTextNode(e),c.parentNode.replaceChild(e,c)}t.parentNode.removeChild(t);}}catch(u){}}()/* ]]&gt; */&lt;/script&gt;\nFormat settings, CABAC                   : Yes\nFormat settings, ReFrames                : 5 frames\nMuxing mode                              : Header stripping\nCodec ID                                 : V_MPEG4/ISO/AVC\nDuration                                 : 1h 30mn\nBit rate                                 : 5 387 Kbps\nWidth                                    : 1 280 pixels\nHeight                                   : 720 pixels\nDisplay aspect ratio                     : 16:9\nFrame rate                               : 23.976 fps\nColor space                              : YUV\nChroma subsampling                       : 4:2:0\nBit depth                                : 8 bits\nScan type                                : Progressive\nBits/(Pixel*Frame)                       : 0.244\nStream size                              : 3.32 GiB (72%)\nTitle                                    : Bad.Ass.2.Bad.Asses.2014.720p.BluRay.x264-ROVERS.DUAL.Thyrso10\nWriting library                          : x264 core 140 r2377 1ca7bb9\nEncoding settings                        : cabac=1 / ref=5 / deblock=1:0:0 / analyse=0x3:0x133 / me=umh / subme=7 / psy=1 / psy_rd=1.00:0.00 / mixed_ref=1 / me_range=16 / chroma_me=1 / trellis=1 / 8x8dct=1 / cqm=0 / deadzone=21,11 / fast_pskip=0 / chroma_qp_offset=-2 / threads=12 / lookahead_threads=2 / sliced_threads=0 / nr=0 / decimate=1 / interlaced=0 / bluray_compat=0 / constrained_intra=0 / bframes=3 / b_pyramid=2 / b_adapt=1 / b_bias=0 / direct=1 / weightb=1 / open_gop=0 / weightp=2 / keyint=250 / keyint_min=23 / scenecut=40 / intra_refresh=0 / rc_lookahead=40 / rc=2pass / mbtree=1 / bitrate=5387 / ratetol=1.0 / qcomp=0.60 / qpmin=0 / qpmax=69 / qpstep=4 / cplxblur=20.0 / qblur=0.5 / ip_ratio=1.40 / aq=1:1.00\nLanguage                                 : English\nDefault                                  : Yes\nForced                                   : No\n\nAudio #1\nID                                       : 2\nFormat                                   : AC-3\nFormat/Info                              : Audio Coding 3\nMode extension                           : CM (complete main)\nFormat settings, Endianness              : Big\nMuxing mode                              : Header stripping\nCodec ID                                 : A_AC3\nDuration                                 : 1h 30mn\nBit rate mode                            : Constant\nBit rate                                 : 384 Kbps\nChannel(s)                               : 6 channels\nChannel positions                        : Front: L C R, Side: L R, LFE\nSampling rate                            : 48.0 KHz\nBit depth                                : 16 bits\nCompression mode                         : Lossy\nStream size                              : 249 MiB (5%)\nTitle                                    : Thyrso10\nLanguage                                 : Portuguese\nDefault                                  : Yes\nForced                                   : Yes\n\nAudio #2\nID                                       : 3\nFormat                                   : DTS\nFormat/Info                              : Digital Theater Systems\nMuxing mode                              : Header stripping\nCodec ID                                 : A_DTS\nDuration                                 : 1h 30mn\nBit rate mode                            : Constant\nBit rate                                 : 1 510 Kbps\nChannel(s)                               : 6 channels\nChannel positions                        : Front: L C R, Side: L R, LFE\nSampling rate                            : 48.0 KHz\nBit depth                                : 24 bits\nCompression mode                         : Lossy\nStream size                              : 979 MiB (21%)\nTitle                                    : Thyrso10\nLanguage                                 : English\nDefault                                  : No\nForced                                   : No\n\n\n\nSEED PLEAS\n\nENJOY...","torrent":{"xt":"urn:btih:a51d3ab9d0d303f4f08beda919a95b606e15533a","amp;dn":"Bad+Asses+2014+720p+BluRay+x264+DTS+ROVERS+DUAL+Thyrso10","amp;tr":["udp%3A%2F%2Ftracker.openbittorrent.com%3A80","udp%3A%2F%2Fopen.demonii.com%3A1337","udp%3A%2F%2Ftracker.coppersurfer.tk%3A6969","udp%3A%2F%2Fexodus.desync.com%3A6969"],"infoHash":"a51d3ab9d0d303f4f08beda919a95b606e15533a","infoHashBuffer":{"type":"Buffer","data":[165,29,58,185,208,211,3,244,240,139,237,169,25,169,91,96,110,21,83,58]},"announce":[],"urlList":[]}}